<?xml version="1.0" encoding="utf-8"?>
<!-- Generator: Adobe Illustrator 26.0.1, SVG Export Plug-In . SVG Version: 6.00 Build 0)  -->
<svg version="1.1" id="Layer_1" xmlns="http://www.w3.org/2000/svg" xmlns:xlink="http://www.w3.org/1999/xlink" x="0px" y="0px"
	 viewBox="0 0 349.5 200" style="enable-background:new 0 0 349.5 200;" xml:space="preserve">
<style type="text/css">
	.st0{fill-rule:evenodd;clip-rule:evenodd;fill:#23E5DB;}
</style>
<path class="st0" d="M229.1,200h-47.4V0h47.4V200z M164.9,100.2c0,45.5-36.9,82.4-82.4,82.4C37,182.6,0,145.7,0,100.2
	s36.9-82.4,82.4-82.4C127.9,17.9,164.9,54.7,164.9,100.2z M107.3,100.2c0-13.7-11.1-24.9-24.8-24.9c0,0,0,0-0.1,0
	c-13.7,0-24.9,11.1-24.9,24.8c0,0,0,0,0,0.1c0,13.7,11.1,24.9,24.8,24.9c0,0,0,0,0.1,0C96.2,125.1,107.3,114,107.3,100.2
	C107.3,100.3,107.3,100.3,107.3,100.2z M349.4,50.2h-31.5l-18.5,18.5l-18.5-18.5h-31.5v32l18.2,18.2l-18.2,18.2v31.6h32l18.1-18
	l18.1,18h32v-31.6l-18.2-18.2l18.2-18.2v-32L349.4,50.2L349.4,50.2z"/>
</svg>
