<svg width="150" height="150" viewBox="0 0 140 140" fill="none" xmlns="http://www.w3.org/2000/svg">
    <g id="mode=light">
        <g id="success">
            <path id="Path" d="M86.7469 7.5L70 16.0792L53.2531 7.5L43.0396 23.3031L24.2469 24.2469L23.3031 43.0396L7.5 53.2531L16.0792 70L7.5 86.7469L23.3031 96.9604L24.2469 115.753L43.0385 116.697L53.2542 132.5L70 123.921L86.7469 132.5L96.9604 116.697L115.753 115.753L116.696 96.9604L132.5 86.7469L123.921 70L132.5 53.2542V53.2531L116.696 43.0396L115.753 24.2469L96.9604 23.3031L86.7469 7.5Z" fill="#23E5DB"/>
            <path id="Path_2" d="M70 28.3447L82.9375 21.7176L90.8271 33.9259L105.345 34.6551L106.074 49.1718L118.282 57.0624L111.654 69.9999L118.282 82.9374L106.074 90.827L105.345 105.345L90.8271 106.074L82.9375 118.282L70 111.654L57.0625 118.282L49.1729 106.074L34.6542 105.345L33.925 90.827L21.7167 82.9374L28.3458 69.9999L21.7188 57.0624L33.9271 49.1718L34.6563 34.6541L49.174 33.9249L57.0635 21.7166L70 28.3447Z" fill="#CBF7EE"/>
            <path id="Shape" fill-rule="evenodd" clip-rule="evenodd" d="M68.0989 59.8403C68.0989 52.9372 73.6958 47.3403 80.5989 47.3403C87.5031 47.3403 93.0989 52.9372 93.0989 59.8403C93.0989 66.7435 87.5031 72.3403 80.5989 72.3403C73.6958 72.3403 68.0989 66.7435 68.0989 59.8403ZM47.4125 84.8363C54.076 91.6884 61.1645 95.1593 68.4906 95.1593H68.4916C68.6541 95.1593 68.8177 95.1572 68.9812 95.154C79.9906 94.9218 87.3021 86.878 87.6083 86.5363L83.8843 83.1999C83.8229 83.2676 77.6437 89.9947 68.826 90.1561L68.5 90.1593C62.5698 90.1593 56.6823 87.1968 50.9968 81.3509L47.4125 84.8363ZM80.5989 56.0903C82.6666 56.0903 84.3489 57.7726 84.3489 59.8403C84.3489 61.908 82.6666 63.5903 80.5989 63.5903C78.5288 63.588 76.8512 61.9104 76.8489 59.8403C76.8489 57.7726 78.5312 56.0903 80.5989 56.0903ZM61.7979 62.3403H46.901V57.3403H61.7979V62.3403Z" fill="#002F34"/>
        </g>
    </g>
</svg>
