<svg width="130" height="130" viewBox="0 0 140 140" fill="none" xmlns="http://www.w3.org/2000/svg">
	<g id="mode=light">
		<g id="Group">
			<path id="Vector" fill-rule="evenodd" clip-rule="evenodd" d="M18 58.5492L70.4756 101.872L122.952 58.5492L70.4756 15.2261L18 58.5492Z" fill="#002F34"/>
			<path id="Vector_2" d="M105.434 53.1304H35.518V107.714H105.434V53.1304Z" fill="white"/>
			<path id="Vector_3" fill-rule="evenodd" clip-rule="evenodd" d="M50.1157 65.1262C50.1157 66.1291 49.2079 66.9428 48.0864 66.9428C46.9649 66.9428 46.0571 66.1302 46.0571 65.1262C46.0571 64.1222 46.966 63.3096 48.0864 63.3096C49.2068 63.3096 50.1157 64.1222 50.1157 65.1262Z" fill="#002F34"/>
			<path id="Vector_4" d="M94.246 63.3096H47.9567V66.9428H94.246V63.3096Z" fill="#002F34"/>
			<path id="Vector_5" fill-rule="evenodd" clip-rule="evenodd" d="M96.2752 65.1262C96.2752 66.1291 95.3663 66.9428 94.2459 66.9428C93.1255 66.9428 92.2166 66.1302 92.2166 65.1262C92.2166 64.1222 93.1244 63.3096 94.2459 63.3096C95.3674 63.3096 96.2752 64.1222 96.2752 65.1262Z" fill="#002F34"/>
			<path id="Vector_6" fill-rule="evenodd" clip-rule="evenodd" d="M50.1157 71.632C50.1157 72.6349 49.2079 73.4486 48.0864 73.4486C46.9649 73.4486 46.0571 72.6349 46.0571 71.632C46.0571 70.6291 46.966 69.8154 48.0864 69.8154C49.2068 69.8154 50.1157 70.6291 50.1157 71.632Z" fill="#002F34"/>
			<path id="Vector_7" d="M94.246 69.814H47.9567V73.4472H94.246V69.814Z" fill="#002F34"/>
			<path id="Vector_8" fill-rule="evenodd" clip-rule="evenodd" d="M96.2752 71.632C96.2752 72.6349 95.3663 73.4486 94.2459 73.4486C93.1255 73.4486 92.2166 72.6349 92.2166 71.632C92.2166 70.6291 93.1244 69.8154 94.2459 69.8154C95.3674 69.8154 96.2752 70.6291 96.2752 71.632Z" fill="#002F34"/>
			<path id="Vector_9" fill-rule="evenodd" clip-rule="evenodd" d="M50.1157 78.135C50.1157 79.1379 49.2079 79.9516 48.0864 79.9516C46.9649 79.9516 46.0571 79.1379 46.0571 78.135C46.0571 77.1321 46.966 76.3184 48.0864 76.3184C49.2068 76.3184 50.1157 77.1321 50.1157 78.135Z" fill="#002F34"/>
			<path id="Vector_10" d="M94.246 76.3184H47.9567V79.9516H94.246V76.3184Z" fill="#002F34"/>
			<path id="Vector_11" fill-rule="evenodd" clip-rule="evenodd" d="M96.2752 78.135C96.2752 79.1379 95.3663 79.9516 94.2459 79.9516C93.1255 79.9516 92.2166 79.1379 92.2166 78.135C92.2166 77.1321 93.1244 76.3184 94.2459 76.3184C95.3674 76.3184 96.2752 77.1321 96.2752 78.135Z" fill="#002F34"/>
			<path id="Vector_12" fill-rule="evenodd" clip-rule="evenodd" d="M122.951 58.5498L70.4756 101.873L119.224 130.923L122.951 127.585V64.9633V58.5498Z" fill="#C7DCFF"/>
			<path id="Vector_13" fill-rule="evenodd" clip-rule="evenodd" d="M18 58.5498V64.9644V127.585L25.1634 134H115.788L119.224 130.923L18 58.5498Z" fill="#3A77FF"/>
			<path id="Vector_14" fill-rule="evenodd" clip-rule="evenodd" d="M86.9382 5C81.5645 5 77.2082 9.35515 77.2082 14.73C77.2082 20.1048 81.5645 24.4599 86.9382 24.4599C92.3119 24.4599 96.6681 20.1037 96.6681 14.73C96.6681 9.35627 92.3119 5 86.9382 5ZM86.9382 17.6782C85.3096 17.6782 83.99 16.3585 83.99 14.73C83.99 13.1014 85.3107 11.7818 86.9382 11.7818C88.5656 11.7818 89.8864 13.1014 89.8864 14.73C89.8864 16.3585 88.5667 17.6782 86.9382 17.6782Z" fill="#FFCE32"/>
			<path id="Vector_15" d="M44.7946 21.5285L35.9402 26.1172L45.6069 44.7702L54.4614 40.1814L44.7946 21.5285Z" fill="#FFCE32"/>
			<path id="Vector_16" d="M106.125 29.5565L92.6604 45.6836L100.316 52.0752L113.781 35.9482L106.125 29.5565Z" fill="#FFCE32"/>
		</g>
	</g>
</svg>
