<svg width="96" height="96" fill="none" xmlns="http://www.w3.org/2000/svg" viewBox="0 0 96 97"><path fill-rule="evenodd" clip-rule="evenodd" d="M96 48.5c0 26.51-21.49 48-48 48S0 75.01 0 48.5 21.49.5 48 .5s48 21.49 48 48z" fill="#CBF7EE"/><mask id="a" style="maskType:luminance" maskUnits="userSpaceOnUse" x="0" y="0" width="96" height="97"><path fill-rule="evenodd" clip-rule="evenodd" d="M96 48.5c0 26.51-21.49 48-48 48S0 75.01 0 48.5 21.49.5 48 .5s48 21.49 48 48z" fill="#fff"/></mask><g mask="url(#a)" fill-rule="evenodd" clip-rule="evenodd"><path d="M89.323 90.59l-41.404 41.404L6.515 90.59l41.404-41.405L89.323 90.59z" fill="#00A49F"/><path d="M24.023 57.328C29.028 70.39 43.75 76.952 56.902 71.98c13.154-4.97 19.76-19.59 14.755-32.652-5.004-13.063-19.725-19.624-32.878-14.654-13.154 4.97-19.76 19.59-14.756 32.653z" fill="#23E5DB"/><path d="M55.612 54.581c-2.586 0-4.684-2.082-4.684-4.652 0-2.569 2.098-4.651 4.684-4.651 2.587 0 4.685 2.082 4.685 4.651 0 2.57-2.098 4.652-4.685 4.652zm-15.546 0c-2.586 0-4.684-2.082-4.684-4.652 0-2.569 2.098-4.651 4.684-4.651 2.587 0 4.685 2.082 4.685 4.651 0 2.57-2.098 4.652-4.685 4.652z" fill="#002F34"/><path d="M67.486 22.115a13.17 13.17 0 00-2.998.356c.238-.97.378-1.977.378-3.018 0-7.045-5.75-12.756-12.844-12.756a12.836 12.836 0 00-11.946 8.093 16.443 16.443 0 00-9.852-3.256c-9.079 0-16.438 7.31-16.438 16.324 0 4.081 1.512 7.81 4.004 10.671-2.66 1.786-4.407 4.809-4.407 8.237 0 5.487 4.48 9.936 10.005 9.936s10.005-4.449 10.005-9.936c0-.979-.148-1.922-.414-2.816 6.77-1.135 12.128-6.376 13.394-13.056a12.842 12.842 0 005.649 1.314c.961 0 1.895-.114 2.796-.313a12.905 12.905 0 00-.421 3.219c0 7.18 5.86 13 13.089 13 7.23 0 13.09-5.82 13.09-13s-5.86-13-13.09-13z" fill="#002F34"/></g></svg>